<svg viewBox="0 0 100 100" fill="none" xmlns="http://www.w3.org/2000/svg">
<rect width="100" height="100" fill="#E8471B"/>
<path d="M28 22h24c5.5 0 9.8 1.2 12.8 3.5 3 2.3 4.5 5.6 4.5 9.8 0 3.2-.9 5.8-2.7 7.9-1.8 2.1-4.2 3.4-7.2 4.1v.3c3.8.5 6.7 2 8.8 4.3 2.1 2.3 3.1 5.4 3.1 9.1 0 4.7-1.7 8.4-5 11-3.3 2.6-7.9 3.9-13.8 3.9H28V22zm11.4 21.8h10.8c3.3 0 5.8-.6 7.4-1.9 1.6-1.3 2.4-3.3 2.4-5.9 0-2.4-.9-4.2-2.6-5.4-1.7-1.2-4.3-1.8-7.7-1.8H39.4v15zm0 8.8V68h12.3c3.4 0 6-.7 7.8-2.2 1.8-1.5 2.7-3.7 2.7-6.6 0-2.8-.9-4.9-2.8-6.3-1.9-1.4-4.7-2.1-8.4-2.1H39.4z" fill="#1A1A1A"/>
</svg>
